ISO-10303-21;
HEADER;
/* Generated by software containing ST-Developer
 * from STEP Tools, Inc. (www.steptools.com) 
 */

FILE_DESCRIPTION(
/* description */ (''),
/* implementation_level */ '2;1');

FILE_NAME(
/* name */ 'FINAL BRAILLE BOTTOM.step',
/* time_stamp */ '2026-09-10T17:22:02+06:00',
/* author */ (''),
/* organization */ (''),
/* preprocessor_version */ 'ST-DEVELOPER v20.2',
/* originating_system */ 'Autodesk Translation Framework v15.15.0.0',
/* authorisation */ '');

FILE_SCHEMA (('AUTOMOTIVE_DESIGN { 1 0 10303 214 3 1 1 }'));
ENDSEC;

DATA;
#10=MECHANICAL_DESIGN_GEOMETRIC_PRESENTATION_REPRESENTATION('',(#15,#16),
#1458);
#11=SHAPE_REPRESENTATION_RELATIONSHIP('SRR','None',#1465,#12);
#12=ADVANCED_BREP_SHAPE_REPRESENTATION('',(#17,#18),#1457);
#13=ELLIPSE('',#950,2.82842712474619,2.);
#14=ELLIPSE('',#951,2.82842712474619,2.);
#15=STYLED_ITEM('',(#1474),#17);
#16=STYLED_ITEM('',(#1474),#18);
#17=MANIFOLD_SOLID_BREP('Body1',#861);
#18=MANIFOLD_SOLID_BREP('Body9',#862);
#19=FACE_BOUND('',#133,.T.);
#20=FACE_BOUND('',#143,.T.);
#21=FACE_BOUND('',#149,.T.);
#22=FACE_BOUND('',#159,.T.);
#23=FACE_BOUND('',#164,.T.);
#24=CIRCLE('',#882,11.);
#25=CIRCLE('',#883,11.);
#26=CIRCLE('',#886,11.);
#27=CIRCLE('',#887,11.);
#28=CIRCLE('',#890,11.);
#29=CIRCLE('',#891,11.);
#30=CIRCLE('',#894,11.);
#31=CIRCLE('',#895,11.);
#32=CIRCLE('',#897,10.5);
#33=CIRCLE('',#898,10.5);
#34=CIRCLE('',#899,10.5);
#35=CIRCLE('',#900,10.5);
#36=CIRCLE('',#903,10.5);
#37=CIRCLE('',#906,10.5);
#38=CIRCLE('',#909,10.5);
#39=CIRCLE('',#912,10.5);
#40=CIRCLE('',#914,12.);
#41=CIRCLE('',#915,12.);
#42=CIRCLE('',#916,12.);
#43=CIRCLE('',#917,12.);
#44=CIRCLE('',#920,9.49999999999999);
#45=CIRCLE('',#921,9.49999999999999);
#46=CIRCLE('',#924,9.5);
#47=CIRCLE('',#925,9.5);
#48=CIRCLE('',#928,9.5);
#49=CIRCLE('',#929,9.5);
#50=CIRCLE('',#932,9.5);
#51=CIRCLE('',#933,9.5);
#52=CIRCLE('',#937,12.);
#53=CIRCLE('',#940,12.);
#54=CIRCLE('',#943,12.);
#55=CIRCLE('',#946,12.);
#56=CYLINDRICAL_SURFACE('',#881,11.);
#57=CYLINDRICAL_SURFACE('',#885,11.);
#58=CYLINDRICAL_SURFACE('',#889,11.);
#59=CYLINDRICAL_SURFACE('',#893,11.);
#60=CYLINDRICAL_SURFACE('',#902,10.5);
#61=CYLINDRICAL_SURFACE('',#905,10.5);
#62=CYLINDRICAL_SURFACE('',#908,10.5);
#63=CYLINDRICAL_SURFACE('',#911,10.5);
#64=CYLINDRICAL_SURFACE('',#919,9.49999999999999);
#65=CYLINDRICAL_SURFACE('',#923,9.5);
#66=CYLINDRICAL_SURFACE('',#927,9.5);
#67=CYLINDRICAL_SURFACE('',#931,9.5);
#68=CYLINDRICAL_SURFACE('',#936,12.);
#69=CYLINDRICAL_SURFACE('',#939,12.);
#70=CYLINDRICAL_SURFACE('',#942,12.);
#71=CYLINDRICAL_SURFACE('',#945,12.);
#72=CYLINDRICAL_SURFACE('',#949,2.);
#73=FACE_OUTER_BOUND('',#120,.T.);
#74=FACE_OUTER_BOUND('',#121,.T.);
#75=FACE_OUTER_BOUND('',#122,.T.);
#76=FACE_OUTER_BOUND('',#123,.T.);
#77=FACE_OUTER_BOUND('',#124,.T.);
#78=FACE_OUTER_BOUND('',#125,.T.);
#79=FACE_OUTER_BOUND('',#126,.T.);
#80=FACE_OUTER_BOUND('',#127,.T.);
#81=FACE_OUTER_BOUND('',#128,.T.);
#82=FACE_OUTER_BOUND('',#129,.T.);
#83=FACE_OUTER_BOUND('',#130,.T.);
#84=FACE_OUTER_BOUND('',#131,.T.);
#85=FACE_OUTER_BOUND('',#132,.T.);
#86=FACE_OUTER_BOUND('',#134,.T.);
#87=FACE_OUTER_BOUND('',#135,.T.);
#88=FACE_OUTER_BOUND('',#136,.T.);
#89=FACE_OUTER_BOUND('',#137,.T.);
#90=FACE_OUTER_BOUND('',#138,.T.);
#91=FACE_OUTER_BOUND('',#139,.T.);
#92=FACE_OUTER_BOUND('',#140,.T.);
#93=FACE_OUTER_BOUND('',#141,.T.);
#94=FACE_OUTER_BOUND('',#142,.T.);
#95=FACE_OUTER_BOUND('',#144,.T.);
#96=FACE_OUTER_BOUND('',#145,.T.);
#97=FACE_OUTER_BOUND('',#146,.T.);
#98=FACE_OUTER_BOUND('',#147,.T.);
#99=FACE_OUTER_BOUND('',#148,.T.);
#100=FACE_OUTER_BOUND('',#150,.T.);
#101=FACE_OUTER_BOUND('',#151,.T.);
#102=FACE_OUTER_BOUND('',#152,.T.);
#103=FACE_OUTER_BOUND('',#153,.T.);
#104=FACE_OUTER_BOUND('',#154,.T.);
#105=FACE_OUTER_BOUND('',#155,.T.);
#106=FACE_OUTER_BOUND('',#156,.T.);
#107=FACE_OUTER_BOUND('',#157,.T.);
#108=FACE_OUTER_BOUND('',#158,.T.);
#109=FACE_OUTER_BOUND('',#160,.T.);
#110=FACE_OUTER_BOUND('',#161,.T.);
#111=FACE_OUTER_BOUND('',#162,.T.);
#112=FACE_OUTER_BOUND('',#163,.T.);
#113=FACE_OUTER_BOUND('',#165,.T.);
#114=FACE_OUTER_BOUND('',#166,.T.);
#115=FACE_OUTER_BOUND('',#167,.T.);
#116=FACE_OUTER_BOUND('',#168,.T.);
#117=FACE_OUTER_BOUND('',#169,.T.);
#118=FACE_OUTER_BOUND('',#170,.T.);
#119=FACE_OUTER_BOUND('',#171,.T.);
#120=EDGE_LOOP('',(#544,#545,#546,#547));
#121=EDGE_LOOP('',(#548,#549,#550,#551));
#122=EDGE_LOOP('',(#552,#553,#554,#555));
#123=EDGE_LOOP('',(#556,#557,#558,#559));
#124=EDGE_LOOP('',(#560,#561,#562,#563));
#125=EDGE_LOOP('',(#564,#565,#566,#567));
#126=EDGE_LOOP('',(#568,#569,#570,#571));
#127=EDGE_LOOP('',(#572,#573,#574,#575));
#128=EDGE_LOOP('',(#576,#577,#578,#579));
#129=EDGE_LOOP('',(#580,#581,#582,#583));
#130=EDGE_LOOP('',(#584,#585,#586,#587));
#131=EDGE_LOOP('',(#588,#589,#590,#591));
#132=EDGE_LOOP('',(#592,#593,#594,#595,#596,#597,#598,#599));
#133=EDGE_LOOP('',(#600,#601,#602,#603,#604,#605,#606,#607));
#134=EDGE_LOOP('',(#608,#609,#610,#611));
#135=EDGE_LOOP('',(#612,#613,#614,#615));
#136=EDGE_LOOP('',(#616,#617,#618,#619));
#137=EDGE_LOOP('',(#620,#621,#622,#623));
#138=EDGE_LOOP('',(#624,#625,#626,#627));
#139=EDGE_LOOP('',(#628,#629,#630,#631));
#140=EDGE_LOOP('',(#632,#633,#634,#635));
#141=EDGE_LOOP('',(#636,#637,#638,#639));
#142=EDGE_LOOP('',(#640,#641,#642,#643,#644,#645,#646,#647));
#143=EDGE_LOOP('',(#648,#649,#650,#651,#652,#653,#654,#655));
#144=EDGE_LOOP('',(#656,#657,#658,#659));
#145=EDGE_LOOP('',(#660,#661,#662,#663));
#146=EDGE_LOOP('',(#664,#665,#666,#667));
#147=EDGE_LOOP('',(#668,#669,#670,#671));
#148=EDGE_LOOP('',(#672,#673,#674,#675));
#149=EDGE_LOOP('',(#676,#677,#678,#679));
#150=EDGE_LOOP('',(#680,#681,#682,#683));
#151=EDGE_LOOP('',(#684,#685,#686,#687));
#152=EDGE_LOOP('',(#688,#689,#690,#691));
#153=EDGE_LOOP('',(#692,#693,#694,#695,#696,#697,#698,#699));
#154=EDGE_LOOP('',(#700,#701,#702,#703));
#155=EDGE_LOOP('',(#704,#705,#706,#707));
#156=EDGE_LOOP('',(#708,#709,#710,#711));
#157=EDGE_LOOP('',(#712,#713,#714,#715));
#158=EDGE_LOOP('',(#716,#717,#718,#719));
#159=EDGE_LOOP('',(#720,#721,#722,#723));
#160=EDGE_LOOP('',(#724,#725,#726,#727));
#161=EDGE_LOOP('',(#728,#729,#730,#731));
#162=EDGE_LOOP('',(#732,#733,#734,#735));
#163=EDGE_LOOP('',(#736,#737,#738,#739,#740,#741,#742,#743));
#164=EDGE_LOOP('',(#744,#745,#746,#747,#748,#749,#750,#751));
#165=EDGE_LOOP('',(#752,#753,#754,#755,#756,#757,#758,#759));
#166=EDGE_LOOP('',(#760,#761,#762,#763));
#167=EDGE_LOOP('',(#764,#765,#766,#767));
#168=EDGE_LOOP('',(#768,#769,#770,#771));
#169=EDGE_LOOP('',(#772,#773,#774,#775));
#170=EDGE_LOOP('',(#776,#777,#778,#779));
#171=EDGE_LOOP('',(#780,#781,#782,#783));
#172=LINE('',#1211,#258);
#173=LINE('',#1213,#259);
#174=LINE('',#1215,#260);
#175=LINE('',#1216,#261);
#176=LINE('',#1219,#262);
#177=LINE('',#1221,#263);
#178=LINE('',#1222,#264);
#179=LINE('',#1225,#265);
#180=LINE('',#1227,#266);
#181=LINE('',#1228,#267);
#182=LINE('',#1230,#268);
#183=LINE('',#1231,#269);
#184=LINE('',#1235,#270);
#185=LINE('',#1237,#271);
#186=LINE('',#1239,#272);
#187=LINE('',#1240,#273);
#188=LINE('',#1246,#274);
#189=LINE('',#1249,#275);
#190=LINE('',#1251,#276);
#191=LINE('',#1252,#277);
#192=LINE('',#1258,#278);
#193=LINE('',#1261,#279);
#194=LINE('',#1263,#280);
#195=LINE('',#1264,#281);
#196=LINE('',#1270,#282);
#197=LINE('',#1273,#283);
#198=LINE('',#1275,#284);
#199=LINE('',#1276,#285);
#200=LINE('',#1285,#286);
#201=LINE('',#1289,#287);
#202=LINE('',#1293,#288);
#203=LINE('',#1296,#289);
#204=LINE('',#1300,#290);
#205=LINE('',#1301,#291);
#206=LINE('',#1302,#292);
#207=LINE('',#1306,#293);
#208=LINE('',#1309,#294);
#209=LINE('',#1310,#295);
#210=LINE('',#1314,#296);
#211=LINE('',#1317,#297);
#212=LINE('',#1318,#298);
#213=LINE('',#1322,#299);
#214=LINE('',#1325,#300);
#215=LINE('',#1326,#301);
#216=LINE('',#1334,#302);
#217=LINE('',#1338,#303);
#218=LINE('',#1342,#304);
#219=LINE('',#1345,#305);
#220=LINE('',#1349,#306);
#221=LINE('',#1351,#307);
#222=LINE('',#1353,#308);
#223=LINE('',#1354,#309);
#224=LINE('',#1359,#310);
#225=LINE('',#1363,#311);
#226=LINE('',#1365,#312);
#227=LINE('',#1366,#313);
#228=LINE('',#1371,#314);
#229=LINE('',#1375,#315);
#230=LINE('',#1377,#316);
#231=LINE('',#1378,#317);
#232=LINE('',#1383,#318);
#233=LINE('',#1387,#319);
#234=LINE('',#1389,#320);
#235=LINE('',#1390,#321);
#236=LINE('',#1398,#322);
#237=LINE('',#1399,#323);
#238=LINE('',#1400,#324);
#239=LINE('',#1404,#325);
#240=LINE('',#1407,#326);
#241=LINE('',#1408,#327);
#242=LINE('',#1412,#328);
#243=LINE('',#1415,#329);
#244=LINE('',#1416,#330);
#245=LINE('',#1420,#331);
#246=LINE('',#1423,#332);
#247=LINE('',#1424,#333);
#248=LINE('',#1434,#334);
#249=LINE('',#1437,#335);
#250=LINE('',#1440,#336);
#251=LINE('',#1442,#337);
#252=LINE('',#1443,#338);
#253=LINE('',#1446,#339);
#254=LINE('',#1447,#340);
#255=LINE('',#1450,#341);
#256=LINE('',#1451,#342);
#257=LINE('',#1453,#343);
#258=VECTOR('',#961,10.);
#259=VECTOR('',#962,10.);
#260=VECTOR('',#963,10.);
#261=VECTOR('',#964,10.);
#262=VECTOR('',#967,10.);
#263=VECTOR('',#968,10.);
#264=VECTOR('',#969,10.);
#265=VECTOR('',#972,10.);
#266=VECTOR('',#973,10.);
#267=VECTOR('',#974,10.);
#268=VECTOR('',#977,10.);
#269=VECTOR('',#978,10.);
#270=VECTOR('',#981,10.);
#271=VECTOR('',#982,10.);
#272=VECTOR('',#983,10.);
#273=VECTOR('',#984,10.);
#274=VECTOR('',#991,10.);
#275=VECTOR('',#994,10.);
#276=VECTOR('',#995,10.);
#277=VECTOR('',#996,10.);
#278=VECTOR('',#1003,10.);
#279=VECTOR('',#1006,10.);
#280=VECTOR('',#1007,10.);
#281=VECTOR('',#1008,10.);
#282=VECTOR('',#1015,10.);
#283=VECTOR('',#1018,10.);
#284=VECTOR('',#1019,10.);
#285=VECTOR('',#1020,10.);
#286=VECTOR('',#1031,10.);
#287=VECTOR('',#1034,10.);
#288=VECTOR('',#1037,10.);
#289=VECTOR('',#1040,10.);
#290=VECTOR('',#1043,10.);
#291=VECTOR('',#1044,10.);
#292=VECTOR('',#1045,10.);
#293=VECTOR('',#1050,10.);
#294=VECTOR('',#1053,10.);
#295=VECTOR('',#1054,10.);
#296=VECTOR('',#1059,10.);
#297=VECTOR('',#1062,10.);
#298=VECTOR('',#1063,10.);
#299=VECTOR('',#1068,10.);
#300=VECTOR('',#1071,10.);
#301=VECTOR('',#1072,10.);
#302=VECTOR('',#1081,10.);
#303=VECTOR('',#1084,10.);
#304=VECTOR('',#1087,10.);
#305=VECTOR('',#1090,10.);
#306=VECTOR('',#1093,10.);
#307=VECTOR('',#1094,10.);
#308=VECTOR('',#1095,10.);
#309=VECTOR('',#1096,10.);
#310=VECTOR('',#1101,10.);
#311=VECTOR('',#1106,10.);
#312=VECTOR('',#1107,10.);
#313=VECTOR('',#1108,10.);
#314=VECTOR('',#1113,10.);
#315=VECTOR('',#1118,10.);
#316=VECTOR('',#1119,10.);
#317=VECTOR('',#1120,10.);
#318=VECTOR('',#1125,10.);
#319=VECTOR('',#1130,10.);
#320=VECTOR('',#1131,10.);
#321=VECTOR('',#1132,10.);
#322=VECTOR('',#1143,10.);
#323=VECTOR('',#1144,10.);
#324=VECTOR('',#1145,10.);
#325=VECTOR('',#1150,10.);
#326=VECTOR('',#1153,10.);
#327=VECTOR('',#1154,10.);
#328=VECTOR('',#1159,10.);
#329=VECTOR('',#1162,10.);
#330=VECTOR('',#1163,10.);
#331=VECTOR('',#1168,10.);
#332=VECTOR('',#1171,10.);
#333=VECTOR('',#1172,10.);
#334=VECTOR('',#1185,10.);
#335=VECTOR('',#1188,10.);
#336=VECTOR('',#1191,10.);
#337=VECTOR('',#1192,10.);
#338=VECTOR('',#1193,10.);
#339=VECTOR('',#1196,10.);
#340=VECTOR('',#1197,10.);
#341=VECTOR('',#1200,10.);
#342=VECTOR('',#1201,10.);
#343=VECTOR('',#1204,10.);
#344=VERTEX_POINT('',#1209);
#345=VERTEX_POINT('',#1210);
#346=VERTEX_POINT('',#1212);
#347=VERTEX_POINT('',#1214);
#348=VERTEX_POINT('',#1218);
#349=VERTEX_POINT('',#1220);
#350=VERTEX_POINT('',#1224);
#351=VERTEX_POINT('',#1226);
#352=VERTEX_POINT('',#1233);
#353=VERTEX_POINT('',#1234);
#354=VERTEX_POINT('',#1236);
#355=VERTEX_POINT('',#1238);
#356=VERTEX_POINT('',#1242);
#357=VERTEX_POINT('',#1244);
#358=VERTEX_POINT('',#1248);
#359=VERTEX_POINT('',#1250);
#360=VERTEX_POINT('',#1254);
#361=VERTEX_POINT('',#1256);
#362=VERTEX_POINT('',#1260);
#363=VERTEX_POINT('',#1262);
#364=VERTEX_POINT('',#1266);
#365=VERTEX_POINT('',#1268);
#366=VERTEX_POINT('',#1272);
#367=VERTEX_POINT('',#1274);
#368=VERTEX_POINT('',#1281);
#369=VERTEX_POINT('',#1282);
#370=VERTEX_POINT('',#1284);
#371=VERTEX_POINT('',#1286);
#372=VERTEX_POINT('',#1288);
#373=VERTEX_POINT('',#1290);
#374=VERTEX_POINT('',#1292);
#375=VERTEX_POINT('',#1294);
#376=VERTEX_POINT('',#1298);
#377=VERTEX_POINT('',#1299);
#378=VERTEX_POINT('',#1304);
#379=VERTEX_POINT('',#1308);
#380=VERTEX_POINT('',#1312);
#381=VERTEX_POINT('',#1316);
#382=VERTEX_POINT('',#1320);
#383=VERTEX_POINT('',#1324);
#384=VERTEX_POINT('',#1330);
#385=VERTEX_POINT('',#1331);
#386=VERTEX_POINT('',#1333);
#387=VERTEX_POINT('',#1335);
#388=VERTEX_POINT('',#1337);
#389=VERTEX_POINT('',#1339);
#390=VERTEX_POINT('',#1341);
#391=VERTEX_POINT('',#1343);
#392=VERTEX_POINT('',#1347);
#393=VERTEX_POINT('',#1348);
#394=VERTEX_POINT('',#1350);
#395=VERTEX_POINT('',#1352);
#396=VERTEX_POINT('',#1356);
#397=VERTEX_POINT('',#1358);
#398=VERTEX_POINT('',#1362);
#399=VERTEX_POINT('',#1364);
#400=VERTEX_POINT('',#1368);
#401=VERTEX_POINT('',#1370);
#402=VERTEX_POINT('',#1374);
#403=VERTEX_POINT('',#1376);
#404=VERTEX_POINT('',#1380);
#405=VERTEX_POINT('',#1382);
#406=VERTEX_POINT('',#1386);
#407=VERTEX_POINT('',#1388);
#408=VERTEX_POINT('',#1396);
#409=VERTEX_POINT('',#1397);
#410=VERTEX_POINT('',#1402);
#411=VERTEX_POINT('',#1406);
#412=VERTEX_POINT('',#1410);
#413=VERTEX_POINT('',#1414);
#414=VERTEX_POINT('',#1418);
#415=VERTEX_POINT('',#1422);
#416=VERTEX_POINT('',#1430);
#417=VERTEX_POINT('',#1431);
#418=VERTEX_POINT('',#1433);
#419=VERTEX_POINT('',#1435);
#420=VERTEX_POINT('',#1439);
#421=VERTEX_POINT('',#1441);
#422=VERTEX_POINT('',#1445);
#423=VERTEX_POINT('',#1449);
#424=EDGE_CURVE('',#344,#345,#172,.T.);
#425=EDGE_CURVE('',#346,#344,#173,.T.);
#426=EDGE_CURVE('',#347,#346,#174,.T.);
#427=EDGE_CURVE('',#347,#345,#175,.T.);
#428=EDGE_CURVE('',#345,#348,#176,.T.);
#429=EDGE_CURVE('',#349,#347,#177,.T.);
#430=EDGE_CURVE('',#349,#348,#178,.T.);
#431=EDGE_CURVE('',#348,#350,#179,.T.);
#432=EDGE_CURVE('',#351,#349,#180,.T.);
#433=EDGE_CURVE('',#351,#350,#181,.T.);
#434=EDGE_CURVE('',#350,#344,#182,.T.);
#435=EDGE_CURVE('',#346,#351,#183,.T.);
#436=EDGE_CURVE('',#352,#353,#184,.T.);
#437=EDGE_CURVE('',#352,#354,#185,.T.);
#438=EDGE_CURVE('',#355,#354,#186,.T.);
#439=EDGE_CURVE('',#353,#355,#187,.T.);
#440=EDGE_CURVE('',#353,#356,#24,.T.);
#441=EDGE_CURVE('',#357,#355,#25,.T.);
#442=EDGE_CURVE('',#356,#357,#188,.T.);
#443=EDGE_CURVE('',#356,#358,#189,.T.);
#444=EDGE_CURVE('',#359,#357,#190,.T.);
#445=EDGE_CURVE('',#358,#359,#191,.T.);
#446=EDGE_CURVE('',#358,#360,#26,.T.);
#447=EDGE_CURVE('',#361,#359,#27,.T.);
#448=EDGE_CURVE('',#360,#361,#192,.T.);
#449=EDGE_CURVE('',#360,#362,#193,.T.);
#450=EDGE_CURVE('',#363,#361,#194,.T.);
#451=EDGE_CURVE('',#362,#363,#195,.T.);
#452=EDGE_CURVE('',#362,#364,#28,.T.);
#453=EDGE_CURVE('',#365,#363,#29,.T.);
#454=EDGE_CURVE('',#364,#365,#196,.T.);
#455=EDGE_CURVE('',#364,#366,#197,.T.);
#456=EDGE_CURVE('',#367,#365,#198,.T.);
#457=EDGE_CURVE('',#366,#367,#199,.T.);
#458=EDGE_CURVE('',#366,#352,#30,.T.);
#459=EDGE_CURVE('',#354,#367,#31,.T.);
#460=EDGE_CURVE('',#368,#369,#32,.T.);
#461=EDGE_CURVE('',#369,#370,#200,.T.);
#462=EDGE_CURVE('',#370,#371,#33,.T.);
#463=EDGE_CURVE('',#371,#372,#201,.T.);
#464=EDGE_CURVE('',#372,#373,#34,.T.);
#465=EDGE_CURVE('',#373,#374,#202,.T.);
#466=EDGE_CURVE('',#374,#375,#35,.T.);
#467=EDGE_CURVE('',#375,#368,#203,.T.);
#468=EDGE_CURVE('',#376,#377,#204,.T.);
#469=EDGE_CURVE('',#376,#368,#205,.T.);
#470=EDGE_CURVE('',#377,#375,#206,.T.);
#471=EDGE_CURVE('',#377,#378,#36,.T.);
#472=EDGE_CURVE('',#378,#374,#207,.T.);
#473=EDGE_CURVE('',#378,#379,#208,.T.);
#474=EDGE_CURVE('',#379,#373,#209,.T.);
#475=EDGE_CURVE('',#379,#380,#37,.T.);
#476=EDGE_CURVE('',#380,#372,#210,.T.);
#477=EDGE_CURVE('',#380,#381,#211,.T.);
#478=EDGE_CURVE('',#381,#371,#212,.T.);
#479=EDGE_CURVE('',#381,#382,#38,.T.);
#480=EDGE_CURVE('',#382,#370,#213,.T.);
#481=EDGE_CURVE('',#382,#383,#214,.T.);
#482=EDGE_CURVE('',#383,#369,#215,.T.);
#483=EDGE_CURVE('',#383,#376,#39,.T.);
#484=EDGE_CURVE('',#384,#385,#40,.T.);
#485=EDGE_CURVE('',#385,#386,#216,.T.);
#486=EDGE_CURVE('',#386,#387,#41,.T.);
#487=EDGE_CURVE('',#387,#388,#217,.T.);
#488=EDGE_CURVE('',#388,#389,#42,.T.);
#489=EDGE_CURVE('',#389,#390,#218,.T.);
#490=EDGE_CURVE('',#390,#391,#43,.T.);
#491=EDGE_CURVE('',#391,#384,#219,.T.);
#492=EDGE_CURVE('',#392,#393,#220,.T.);
#493=EDGE_CURVE('',#393,#394,#221,.T.);
#494=EDGE_CURVE('',#395,#394,#222,.T.);
#495=EDGE_CURVE('',#392,#395,#223,.T.);
#496=EDGE_CURVE('',#396,#393,#44,.F.);
#497=EDGE_CURVE('',#396,#397,#224,.T.);
#498=EDGE_CURVE('',#394,#397,#45,.T.);
#499=EDGE_CURVE('',#398,#396,#225,.F.);
#500=EDGE_CURVE('',#398,#399,#226,.T.);
#501=EDGE_CURVE('',#397,#399,#227,.T.);
#502=EDGE_CURVE('',#400,#398,#46,.F.);
#503=EDGE_CURVE('',#400,#401,#228,.T.);
#504=EDGE_CURVE('',#399,#401,#47,.T.);
#505=EDGE_CURVE('',#402,#400,#229,.F.);
#506=EDGE_CURVE('',#402,#403,#230,.T.);
#507=EDGE_CURVE('',#401,#403,#231,.T.);
#508=EDGE_CURVE('',#404,#402,#48,.F.);
#509=EDGE_CURVE('',#404,#405,#232,.T.);
#510=EDGE_CURVE('',#403,#405,#49,.T.);
#511=EDGE_CURVE('',#406,#404,#233,.F.);
#512=EDGE_CURVE('',#406,#407,#234,.T.);
#513=EDGE_CURVE('',#405,#407,#235,.T.);
#514=EDGE_CURVE('',#392,#406,#50,.F.);
#515=EDGE_CURVE('',#407,#395,#51,.T.);
#516=EDGE_CURVE('',#408,#409,#236,.T.);
#517=EDGE_CURVE('',#408,#390,#237,.T.);
#518=EDGE_CURVE('',#409,#389,#238,.T.);
#519=EDGE_CURVE('',#410,#409,#52,.T.);
#520=EDGE_CURVE('',#410,#388,#239,.T.);
#521=EDGE_CURVE('',#411,#410,#240,.T.);
#522=EDGE_CURVE('',#411,#387,#241,.T.);
#523=EDGE_CURVE('',#412,#411,#53,.T.);
#524=EDGE_CURVE('',#412,#386,#242,.T.);
#525=EDGE_CURVE('',#413,#412,#243,.T.);
#526=EDGE_CURVE('',#413,#385,#244,.T.);
#527=EDGE_CURVE('',#414,#413,#54,.T.);
#528=EDGE_CURVE('',#414,#384,#245,.T.);
#529=EDGE_CURVE('',#415,#414,#246,.T.);
#530=EDGE_CURVE('',#415,#391,#247,.T.);
#531=EDGE_CURVE('',#408,#415,#55,.T.);
#532=EDGE_CURVE('',#416,#417,#13,.T.);
#533=EDGE_CURVE('',#417,#418,#248,.T.);
#534=EDGE_CURVE('',#418,#419,#14,.T.);
#535=EDGE_CURVE('',#419,#416,#249,.T.);
#536=EDGE_CURVE('',#420,#419,#250,.T.);
#537=EDGE_CURVE('',#421,#420,#251,.T.);
#538=EDGE_CURVE('',#421,#416,#252,.T.);
#539=EDGE_CURVE('',#422,#418,#253,.T.);
#540=EDGE_CURVE('',#420,#422,#254,.T.);
#541=EDGE_CURVE('',#423,#417,#255,.T.);
#542=EDGE_CURVE('',#422,#423,#256,.T.);
#543=EDGE_CURVE('',#423,#421,#257,.T.);
#544=ORIENTED_EDGE('',*,*,#424,.F.);
#545=ORIENTED_EDGE('',*,*,#425,.F.);
#546=ORIENTED_EDGE('',*,*,#426,.F.);
#547=ORIENTED_EDGE('',*,*,#427,.T.);
#548=ORIENTED_EDGE('',*,*,#428,.F.);
#549=ORIENTED_EDGE('',*,*,#427,.F.);
#550=ORIENTED_EDGE('',*,*,#429,.F.);
#551=ORIENTED_EDGE('',*,*,#430,.T.);
#552=ORIENTED_EDGE('',*,*,#431,.F.);
#553=ORIENTED_EDGE('',*,*,#430,.F.);
#554=ORIENTED_EDGE('',*,*,#432,.F.);
#555=ORIENTED_EDGE('',*,*,#433,.T.);
#556=ORIENTED_EDGE('',*,*,#434,.F.);
#557=ORIENTED_EDGE('',*,*,#433,.F.);
#558=ORIENTED_EDGE('',*,*,#435,.F.);
#559=ORIENTED_EDGE('',*,*,#425,.T.);
#560=ORIENTED_EDGE('',*,*,#436,.F.);
#561=ORIENTED_EDGE('',*,*,#437,.T.);
#562=ORIENTED_EDGE('',*,*,#438,.F.);
#563=ORIENTED_EDGE('',*,*,#439,.F.);
#564=ORIENTED_EDGE('',*,*,#440,.F.);
#565=ORIENTED_EDGE('',*,*,#439,.T.);
#566=ORIENTED_EDGE('',*,*,#441,.F.);
#567=ORIENTED_EDGE('',*,*,#442,.F.);
#568=ORIENTED_EDGE('',*,*,#443,.F.);
#569=ORIENTED_EDGE('',*,*,#442,.T.);
#570=ORIENTED_EDGE('',*,*,#444,.F.);
#571=ORIENTED_EDGE('',*,*,#445,.F.);
#572=ORIENTED_EDGE('',*,*,#446,.F.);
#573=ORIENTED_EDGE('',*,*,#445,.T.);
#574=ORIENTED_EDGE('',*,*,#447,.F.);
#575=ORIENTED_EDGE('',*,*,#448,.F.);
#576=ORIENTED_EDGE('',*,*,#449,.F.);
#577=ORIENTED_EDGE('',*,*,#448,.T.);
#578=ORIENTED_EDGE('',*,*,#450,.F.);
#579=ORIENTED_EDGE('',*,*,#451,.F.);
#580=ORIENTED_EDGE('',*,*,#452,.F.);
#581=ORIENTED_EDGE('',*,*,#451,.T.);
#582=ORIENTED_EDGE('',*,*,#453,.F.);
#583=ORIENTED_EDGE('',*,*,#454,.F.);
#584=ORIENTED_EDGE('',*,*,#455,.F.);
#585=ORIENTED_EDGE('',*,*,#454,.T.);
#586=ORIENTED_EDGE('',*,*,#456,.F.);
#587=ORIENTED_EDGE('',*,*,#457,.F.);
#588=ORIENTED_EDGE('',*,*,#458,.F.);
#589=ORIENTED_EDGE('',*,*,#457,.T.);
#590=ORIENTED_EDGE('',*,*,#459,.F.);
#591=ORIENTED_EDGE('',*,*,#437,.F.);
#592=ORIENTED_EDGE('',*,*,#459,.T.);
#593=ORIENTED_EDGE('',*,*,#456,.T.);
#594=ORIENTED_EDGE('',*,*,#453,.T.);
#595=ORIENTED_EDGE('',*,*,#450,.T.);
#596=ORIENTED_EDGE('',*,*,#447,.T.);
#597=ORIENTED_EDGE('',*,*,#444,.T.);
#598=ORIENTED_EDGE('',*,*,#441,.T.);
#599=ORIENTED_EDGE('',*,*,#438,.T.);
#600=ORIENTED_EDGE('',*,*,#460,.T.);
#601=ORIENTED_EDGE('',*,*,#461,.T.);
#602=ORIENTED_EDGE('',*,*,#462,.T.);
#603=ORIENTED_EDGE('',*,*,#463,.T.);
#604=ORIENTED_EDGE('',*,*,#464,.T.);
#605=ORIENTED_EDGE('',*,*,#465,.T.);
#606=ORIENTED_EDGE('',*,*,#466,.T.);
#607=ORIENTED_EDGE('',*,*,#467,.T.);
#608=ORIENTED_EDGE('',*,*,#468,.F.);
#609=ORIENTED_EDGE('',*,*,#469,.T.);
#610=ORIENTED_EDGE('',*,*,#467,.F.);
#611=ORIENTED_EDGE('',*,*,#470,.F.);
#612=ORIENTED_EDGE('',*,*,#471,.F.);
#613=ORIENTED_EDGE('',*,*,#470,.T.);
#614=ORIENTED_EDGE('',*,*,#466,.F.);
#615=ORIENTED_EDGE('',*,*,#472,.F.);
#616=ORIENTED_EDGE('',*,*,#473,.F.);
#617=ORIENTED_EDGE('',*,*,#472,.T.);
#618=ORIENTED_EDGE('',*,*,#465,.F.);
#619=ORIENTED_EDGE('',*,*,#474,.F.);
#620=ORIENTED_EDGE('',*,*,#475,.F.);
#621=ORIENTED_EDGE('',*,*,#474,.T.);
#622=ORIENTED_EDGE('',*,*,#464,.F.);
#623=ORIENTED_EDGE('',*,*,#476,.F.);
#624=ORIENTED_EDGE('',*,*,#477,.F.);
#625=ORIENTED_EDGE('',*,*,#476,.T.);
#626=ORIENTED_EDGE('',*,*,#463,.F.);
#627=ORIENTED_EDGE('',*,*,#478,.F.);
#628=ORIENTED_EDGE('',*,*,#479,.F.);
#629=ORIENTED_EDGE('',*,*,#478,.T.);
#630=ORIENTED_EDGE('',*,*,#462,.F.);
#631=ORIENTED_EDGE('',*,*,#480,.F.);
#632=ORIENTED_EDGE('',*,*,#481,.F.);
#633=ORIENTED_EDGE('',*,*,#480,.T.);
#634=ORIENTED_EDGE('',*,*,#461,.F.);
#635=ORIENTED_EDGE('',*,*,#482,.F.);
#636=ORIENTED_EDGE('',*,*,#483,.F.);
#637=ORIENTED_EDGE('',*,*,#482,.T.);
#638=ORIENTED_EDGE('',*,*,#460,.F.);
#639=ORIENTED_EDGE('',*,*,#469,.F.);
#640=ORIENTED_EDGE('',*,*,#484,.T.);
#641=ORIENTED_EDGE('',*,*,#485,.T.);
#642=ORIENTED_EDGE('',*,*,#486,.T.);
#643=ORIENTED_EDGE('',*,*,#487,.T.);
#644=ORIENTED_EDGE('',*,*,#488,.T.);
#645=ORIENTED_EDGE('',*,*,#489,.T.);
#646=ORIENTED_EDGE('',*,*,#490,.T.);
#647=ORIENTED_EDGE('',*,*,#491,.T.);
#648=ORIENTED_EDGE('',*,*,#436,.T.);
#649=ORIENTED_EDGE('',*,*,#440,.T.);
#650=ORIENTED_EDGE('',*,*,#443,.T.);
#651=ORIENTED_EDGE('',*,*,#446,.T.);
#652=ORIENTED_EDGE('',*,*,#449,.T.);
#653=ORIENTED_EDGE('',*,*,#452,.T.);
#654=ORIENTED_EDGE('',*,*,#455,.T.);
#655=ORIENTED_EDGE('',*,*,#458,.T.);
#656=ORIENTED_EDGE('',*,*,#492,.T.);
#657=ORIENTED_EDGE('',*,*,#493,.T.);
#658=ORIENTED_EDGE('',*,*,#494,.F.);
#659=ORIENTED_EDGE('',*,*,#495,.F.);
#660=ORIENTED_EDGE('',*,*,#496,.F.);
#661=ORIENTED_EDGE('',*,*,#497,.T.);
#662=ORIENTED_EDGE('',*,*,#498,.F.);
#663=ORIENTED_EDGE('',*,*,#493,.F.);
#664=ORIENTED_EDGE('',*,*,#499,.F.);
#665=ORIENTED_EDGE('',*,*,#500,.T.);
#666=ORIENTED_EDGE('',*,*,#501,.F.);
#667=ORIENTED_EDGE('',*,*,#497,.F.);
#668=ORIENTED_EDGE('',*,*,#502,.F.);
#669=ORIENTED_EDGE('',*,*,#503,.T.);
#670=ORIENTED_EDGE('',*,*,#504,.F.);
#671=ORIENTED_EDGE('',*,*,#500,.F.);
#672=ORIENTED_EDGE('',*,*,#505,.F.);
#673=ORIENTED_EDGE('',*,*,#506,.T.);
#674=ORIENTED_EDGE('',*,*,#507,.F.);
#675=ORIENTED_EDGE('',*,*,#503,.F.);
#676=ORIENTED_EDGE('',*,*,#431,.T.);
#677=ORIENTED_EDGE('',*,*,#434,.T.);
#678=ORIENTED_EDGE('',*,*,#424,.T.);
#679=ORIENTED_EDGE('',*,*,#428,.T.);
#680=ORIENTED_EDGE('',*,*,#508,.F.);
#681=ORIENTED_EDGE('',*,*,#509,.T.);
#682=ORIENTED_EDGE('',*,*,#510,.F.);
#683=ORIENTED_EDGE('',*,*,#506,.F.);
#684=ORIENTED_EDGE('',*,*,#511,.F.);
#685=ORIENTED_EDGE('',*,*,#512,.T.);
#686=ORIENTED_EDGE('',*,*,#513,.F.);
#687=ORIENTED_EDGE('',*,*,#509,.F.);
#688=ORIENTED_EDGE('',*,*,#514,.F.);
#689=ORIENTED_EDGE('',*,*,#495,.T.);
#690=ORIENTED_EDGE('',*,*,#515,.F.);
#691=ORIENTED_EDGE('',*,*,#512,.F.);
#692=ORIENTED_EDGE('',*,*,#514,.T.);
#693=ORIENTED_EDGE('',*,*,#511,.T.);
#694=ORIENTED_EDGE('',*,*,#508,.T.);
#695=ORIENTED_EDGE('',*,*,#505,.T.);
#696=ORIENTED_EDGE('',*,*,#502,.T.);
#697=ORIENTED_EDGE('',*,*,#499,.T.);
#698=ORIENTED_EDGE('',*,*,#496,.T.);
#699=ORIENTED_EDGE('',*,*,#492,.F.);
#700=ORIENTED_EDGE('',*,*,#516,.F.);
#701=ORIENTED_EDGE('',*,*,#517,.T.);
#702=ORIENTED_EDGE('',*,*,#489,.F.);
#703=ORIENTED_EDGE('',*,*,#518,.F.);
#704=ORIENTED_EDGE('',*,*,#519,.T.);
#705=ORIENTED_EDGE('',*,*,#518,.T.);
#706=ORIENTED_EDGE('',*,*,#488,.F.);
#707=ORIENTED_EDGE('',*,*,#520,.F.);
#708=ORIENTED_EDGE('',*,*,#521,.T.);
#709=ORIENTED_EDGE('',*,*,#520,.T.);
#710=ORIENTED_EDGE('',*,*,#487,.F.);
#711=ORIENTED_EDGE('',*,*,#522,.F.);
#712=ORIENTED_EDGE('',*,*,#523,.T.);
#713=ORIENTED_EDGE('',*,*,#522,.T.);
#714=ORIENTED_EDGE('',*,*,#486,.F.);
#715=ORIENTED_EDGE('',*,*,#524,.F.);
#716=ORIENTED_EDGE('',*,*,#525,.T.);
#717=ORIENTED_EDGE('',*,*,#524,.T.);
#718=ORIENTED_EDGE('',*,*,#485,.F.);
#719=ORIENTED_EDGE('',*,*,#526,.F.);
#720=ORIENTED_EDGE('',*,*,#432,.T.);
#721=ORIENTED_EDGE('',*,*,#429,.T.);
#722=ORIENTED_EDGE('',*,*,#426,.T.);
#723=ORIENTED_EDGE('',*,*,#435,.T.);
#724=ORIENTED_EDGE('',*,*,#527,.T.);
#725=ORIENTED_EDGE('',*,*,#526,.T.);
#726=ORIENTED_EDGE('',*,*,#484,.F.);
#727=ORIENTED_EDGE('',*,*,#528,.F.);
#728=ORIENTED_EDGE('',*,*,#529,.T.);
#729=ORIENTED_EDGE('',*,*,#528,.T.);
#730=ORIENTED_EDGE('',*,*,#491,.F.);
#731=ORIENTED_EDGE('',*,*,#530,.F.);
#732=ORIENTED_EDGE('',*,*,#531,.T.);
#733=ORIENTED_EDGE('',*,*,#530,.T.);
#734=ORIENTED_EDGE('',*,*,#490,.F.);
#735=ORIENTED_EDGE('',*,*,#517,.F.);
#736=ORIENTED_EDGE('',*,*,#468,.T.);
#737=ORIENTED_EDGE('',*,*,#471,.T.);
#738=ORIENTED_EDGE('',*,*,#473,.T.);
#739=ORIENTED_EDGE('',*,*,#475,.T.);
#740=ORIENTED_EDGE('',*,*,#477,.T.);
#741=ORIENTED_EDGE('',*,*,#479,.T.);
#742=ORIENTED_EDGE('',*,*,#481,.T.);
#743=ORIENTED_EDGE('',*,*,#483,.T.);
#744=ORIENTED_EDGE('',*,*,#494,.T.);
#745=ORIENTED_EDGE('',*,*,#498,.T.);
#746=ORIENTED_EDGE('',*,*,#501,.T.);
#747=ORIENTED_EDGE('',*,*,#504,.T.);
#748=ORIENTED_EDGE('',*,*,#507,.T.);
#749=ORIENTED_EDGE('',*,*,#510,.T.);
#750=ORIENTED_EDGE('',*,*,#513,.T.);
#751=ORIENTED_EDGE('',*,*,#515,.T.);
#752=ORIENTED_EDGE('',*,*,#531,.F.);
#753=ORIENTED_EDGE('',*,*,#516,.T.);
#754=ORIENTED_EDGE('',*,*,#519,.F.);
#755=ORIENTED_EDGE('',*,*,#521,.F.);
#756=ORIENTED_EDGE('',*,*,#523,.F.);
#757=ORIENTED_EDGE('',*,*,#525,.F.);
#758=ORIENTED_EDGE('',*,*,#527,.F.);
#759=ORIENTED_EDGE('',*,*,#529,.F.);
#760=ORIENTED_EDGE('',*,*,#532,.T.);
#761=ORIENTED_EDGE('',*,*,#533,.T.);
#762=ORIENTED_EDGE('',*,*,#534,.T.);
#763=ORIENTED_EDGE('',*,*,#535,.T.);
#764=ORIENTED_EDGE('',*,*,#535,.F.);
#765=ORIENTED_EDGE('',*,*,#536,.F.);
#766=ORIENTED_EDGE('',*,*,#537,.F.);
#767=ORIENTED_EDGE('',*,*,#538,.T.);
#768=ORIENTED_EDGE('',*,*,#534,.F.);
#769=ORIENTED_EDGE('',*,*,#539,.F.);
#770=ORIENTED_EDGE('',*,*,#540,.F.);
#771=ORIENTED_EDGE('',*,*,#536,.T.);
#772=ORIENTED_EDGE('',*,*,#533,.F.);
#773=ORIENTED_EDGE('',*,*,#541,.F.);
#774=ORIENTED_EDGE('',*,*,#542,.F.);
#775=ORIENTED_EDGE('',*,*,#539,.T.);
#776=ORIENTED_EDGE('',*,*,#532,.F.);
#777=ORIENTED_EDGE('',*,*,#538,.F.);
#778=ORIENTED_EDGE('',*,*,#543,.F.);
#779=ORIENTED_EDGE('',*,*,#541,.T.);
#780=ORIENTED_EDGE('',*,*,#537,.T.);
#781=ORIENTED_EDGE('',*,*,#540,.T.);
#782=ORIENTED_EDGE('',*,*,#542,.T.);
#783=ORIENTED_EDGE('',*,*,#543,.T.);
#784=PLANE('',#876);
#785=PLANE('',#877);
#786=PLANE('',#878);
#787=PLANE('',#879);
#788=PLANE('',#880);
#789=PLANE('',#884);
#790=PLANE('',#888);
#791=PLANE('',#892);
#792=PLANE('',#896);
#793=PLANE('',#901);
#794=PLANE('',#904);
#795=PLANE('',#907);
#796=PLANE('',#910);
#797=PLANE('',#913);
#798=PLANE('',#918);
#799=PLANE('',#922);
#800=PLANE('',#926);
#801=PLANE('',#930);
#802=PLANE('',#934);
#803=PLANE('',#935);
#804=PLANE('',#938);
#805=PLANE('',#941);
#806=PLANE('',#944);
#807=PLANE('',#947);
#808=PLANE('',#948);
#809=PLANE('',#952);
#810=PLANE('',#953);
#811=PLANE('',#954);
#812=PLANE('',#955);
#813=PLANE('',#956);
#814=ADVANCED_FACE('',(#73),#784,.F.);
#815=ADVANCED_FACE('',(#74),#785,.F.);
#816=ADVANCED_FACE('',(#75),#786,.F.);
#817=ADVANCED_FACE('',(#76),#787,.F.);
#818=ADVANCED_FACE('',(#77),#788,.T.);
#819=ADVANCED_FACE('',(#78),#56,.T.);
#820=ADVANCED_FACE('',(#79),#789,.T.);
#821=ADVANCED_FACE('',(#80),#57,.T.);
#822=ADVANCED_FACE('',(#81),#790,.T.);
#823=ADVANCED_FACE('',(#82),#58,.T.);
#824=ADVANCED_FACE('',(#83),#791,.T.);
#825=ADVANCED_FACE('',(#84),#59,.T.);
#826=ADVANCED_FACE('',(#85,#19),#792,.T.);
#827=ADVANCED_FACE('',(#86),#793,.T.);
#828=ADVANCED_FACE('',(#87),#60,.F.);
#829=ADVANCED_FACE('',(#88),#794,.T.);
#830=ADVANCED_FACE('',(#89),#61,.F.);
#831=ADVANCED_FACE('',(#90),#795,.T.);
#832=ADVANCED_FACE('',(#91),#62,.F.);
#833=ADVANCED_FACE('',(#92),#796,.T.);
#834=ADVANCED_FACE('',(#93),#63,.F.);
#835=ADVANCED_FACE('',(#94,#20),#797,.T.);
#836=ADVANCED_FACE('',(#95),#798,.F.);
#837=ADVANCED_FACE('',(#96),#64,.F.);
#838=ADVANCED_FACE('',(#97),#799,.F.);
#839=ADVANCED_FACE('',(#98),#65,.F.);
#840=ADVANCED_FACE('',(#99,#21),#800,.F.);
#841=ADVANCED_FACE('',(#100),#66,.F.);
#842=ADVANCED_FACE('',(#101),#801,.F.);
#843=ADVANCED_FACE('',(#102),#67,.F.);
#844=ADVANCED_FACE('',(#103),#802,.T.);
#845=ADVANCED_FACE('',(#104),#803,.T.);
#846=ADVANCED_FACE('',(#105),#68,.T.);
#847=ADVANCED_FACE('',(#106),#804,.T.);
#848=ADVANCED_FACE('',(#107),#69,.T.);
#849=ADVANCED_FACE('',(#108,#22),#805,.T.);
#850=ADVANCED_FACE('',(#109),#70,.T.);
#851=ADVANCED_FACE('',(#110),#806,.T.);
#852=ADVANCED_FACE('',(#111),#71,.T.);
#853=ADVANCED_FACE('',(#112,#23),#807,.T.);
#854=ADVANCED_FACE('',(#113),#808,.F.);
#855=ADVANCED_FACE('',(#114),#72,.T.);
#856=ADVANCED_FACE('',(#115),#809,.T.);
#857=ADVANCED_FACE('',(#116),#810,.T.);
#858=ADVANCED_FACE('',(#117),#811,.T.);
#859=ADVANCED_FACE('',(#118),#812,.T.);
#860=ADVANCED_FACE('',(#119),#813,.F.);
#861=CLOSED_SHELL('',(#814,#815,#816,#817,#818,#819,#820,#821,#822,#823,
#824,#825,#826,#827,#828,#829,#830,#831,#832,#833,#834,#835,#836,#837,#838,
#839,#840,#841,#842,#843,#844,#845,#846,#847,#848,#849,#850,#851,#852,#853,
#854));
#862=CLOSED_SHELL('',(#855,#856,#857,#858,#859,#860));
#863=DERIVED_UNIT_ELEMENT(#865,1.);
#864=DERIVED_UNIT_ELEMENT(#1460,-3.);
#865=(
MASS_UNIT()
NAMED_UNIT(*)
SI_UNIT(.KILO.,.GRAM.)
);
#866=DERIVED_UNIT((#863,#864));
#867=MEASURE_REPRESENTATION_ITEM('density measure',
POSITIVE_RATIO_MEASURE(7850.),#866);
#868=PROPERTY_DEFINITION_REPRESENTATION(#873,#870);
#869=PROPERTY_DEFINITION_REPRESENTATION(#874,#871);
#870=REPRESENTATION('material name',(#872),#1457);
#871=REPRESENTATION('density',(#867),#1457);
#872=DESCRIPTIVE_REPRESENTATION_ITEM('Steel','Steel');
#873=PROPERTY_DEFINITION('material property','material name',#1467);
#874=PROPERTY_DEFINITION('material property','density of part',#1467);
#875=AXIS2_PLACEMENT_3D('',#1207,#957,#958);
#876=AXIS2_PLACEMENT_3D('',#1208,#959,#960);
#877=AXIS2_PLACEMENT_3D('',#1217,#965,#966);
#878=AXIS2_PLACEMENT_3D('',#1223,#970,#971);
#879=AXIS2_PLACEMENT_3D('',#1229,#975,#976);
#880=AXIS2_PLACEMENT_3D('',#1232,#979,#980);
#881=AXIS2_PLACEMENT_3D('',#1241,#985,#986);
#882=AXIS2_PLACEMENT_3D('',#1243,#987,#988);
#883=AXIS2_PLACEMENT_3D('',#1245,#989,#990);
#884=AXIS2_PLACEMENT_3D('',#1247,#992,#993);
#885=AXIS2_PLACEMENT_3D('',#1253,#997,#998);
#886=AXIS2_PLACEMENT_3D('',#1255,#999,#1000);
#887=AXIS2_PLACEMENT_3D('',#1257,#1001,#1002);
#888=AXIS2_PLACEMENT_3D('',#1259,#1004,#1005);
#889=AXIS2_PLACEMENT_3D('',#1265,#1009,#1010);
#890=AXIS2_PLACEMENT_3D('',#1267,#1011,#1012);
#891=AXIS2_PLACEMENT_3D('',#1269,#1013,#1014);
#892=AXIS2_PLACEMENT_3D('',#1271,#1016,#1017);
#893=AXIS2_PLACEMENT_3D('',#1277,#1021,#1022);
#894=AXIS2_PLACEMENT_3D('',#1278,#1023,#1024);
#895=AXIS2_PLACEMENT_3D('',#1279,#1025,#1026);
#896=AXIS2_PLACEMENT_3D('',#1280,#1027,#1028);
#897=AXIS2_PLACEMENT_3D('',#1283,#1029,#1030);
#898=AXIS2_PLACEMENT_3D('',#1287,#1032,#1033);
#899=AXIS2_PLACEMENT_3D('',#1291,#1035,#1036);
#900=AXIS2_PLACEMENT_3D('',#1295,#1038,#1039);
#901=AXIS2_PLACEMENT_3D('',#1297,#1041,#1042);
#902=AXIS2_PLACEMENT_3D('',#1303,#1046,#1047);
#903=AXIS2_PLACEMENT_3D('',#1305,#1048,#1049);
#904=AXIS2_PLACEMENT_3D('',#1307,#1051,#1052);
#905=AXIS2_PLACEMENT_3D('',#1311,#1055,#1056);
#906=AXIS2_PLACEMENT_3D('',#1313,#1057,#1058);
#907=AXIS2_PLACEMENT_3D('',#1315,#1060,#1061);
#908=AXIS2_PLACEMENT_3D('',#1319,#1064,#1065);
#909=AXIS2_PLACEMENT_3D('',#1321,#1066,#1067);
#910=AXIS2_PLACEMENT_3D('',#1323,#1069,#1070);
#911=AXIS2_PLACEMENT_3D('',#1327,#1073,#1074);
#912=AXIS2_PLACEMENT_3D('',#1328,#1075,#1076);
#913=AXIS2_PLACEMENT_3D('',#1329,#1077,#1078);
#914=AXIS2_PLACEMENT_3D('',#1332,#1079,#1080);
#915=AXIS2_PLACEMENT_3D('',#1336,#1082,#1083);
#916=AXIS2_PLACEMENT_3D('',#1340,#1085,#1086);
#917=AXIS2_PLACEMENT_3D('',#1344,#1088,#1089);
#918=AXIS2_PLACEMENT_3D('',#1346,#1091,#1092);
#919=AXIS2_PLACEMENT_3D('',#1355,#1097,#1098);
#920=AXIS2_PLACEMENT_3D('',#1357,#1099,#1100);
#921=AXIS2_PLACEMENT_3D('',#1360,#1102,#1103);
#922=AXIS2_PLACEMENT_3D('',#1361,#1104,#1105);
#923=AXIS2_PLACEMENT_3D('',#1367,#1109,#1110);
#924=AXIS2_PLACEMENT_3D('',#1369,#1111,#1112);
#925=AXIS2_PLACEMENT_3D('',#1372,#1114,#1115);
#926=AXIS2_PLACEMENT_3D('',#1373,#1116,#1117);
#927=AXIS2_PLACEMENT_3D('',#1379,#1121,#1122);
#928=AXIS2_PLACEMENT_3D('',#1381,#1123,#1124);
#929=AXIS2_PLACEMENT_3D('',#1384,#1126,#1127);
#930=AXIS2_PLACEMENT_3D('',#1385,#1128,#1129);
#931=AXIS2_PLACEMENT_3D('',#1391,#1133,#1134);
#932=AXIS2_PLACEMENT_3D('',#1392,#1135,#1136);
#933=AXIS2_PLACEMENT_3D('',#1393,#1137,#1138);
#934=AXIS2_PLACEMENT_3D('',#1394,#1139,#1140);
#935=AXIS2_PLACEMENT_3D('',#1395,#1141,#1142);
#936=AXIS2_PLACEMENT_3D('',#1401,#1146,#1147);
#937=AXIS2_PLACEMENT_3D('',#1403,#1148,#1149);
#938=AXIS2_PLACEMENT_3D('',#1405,#1151,#1152);
#939=AXIS2_PLACEMENT_3D('',#1409,#1155,#1156);
#940=AXIS2_PLACEMENT_3D('',#1411,#1157,#1158);
#941=AXIS2_PLACEMENT_3D('',#1413,#1160,#1161);
#942=AXIS2_PLACEMENT_3D('',#1417,#1164,#1165);
#943=AXIS2_PLACEMENT_3D('',#1419,#1166,#1167);
#944=AXIS2_PLACEMENT_3D('',#1421,#1169,#1170);
#945=AXIS2_PLACEMENT_3D('',#1425,#1173,#1174);
#946=AXIS2_PLACEMENT_3D('',#1426,#1175,#1176);
#947=AXIS2_PLACEMENT_3D('',#1427,#1177,#1178);
#948=AXIS2_PLACEMENT_3D('',#1428,#1179,#1180);
#949=AXIS2_PLACEMENT_3D('',#1429,#1181,#1182);
#950=AXIS2_PLACEMENT_3D('',#1432,#1183,#1184);
#951=AXIS2_PLACEMENT_3D('',#1436,#1186,#1187);
#952=AXIS2_PLACEMENT_3D('',#1438,#1189,#1190);
#953=AXIS2_PLACEMENT_3D('',#1444,#1194,#1195);
#954=AXIS2_PLACEMENT_3D('',#1448,#1198,#1199);
#955=AXIS2_PLACEMENT_3D('',#1452,#1202,#1203);
#956=AXIS2_PLACEMENT_3D('',#1454,#1205,#1206);
#957=DIRECTION('axis',(0.,0.,1.));
#958=DIRECTION('refdir',(1.,0.,0.));
#959=DIRECTION('center_axis',(-1.,0.,0.));
#960=DIRECTION('ref_axis',(0.,0.,1.));
#961=DIRECTION('',(0.,0.,-1.));
#962=DIRECTION('',(0.,1.,0.));
#963=DIRECTION('',(0.,0.,1.));
#964=DIRECTION('',(0.,1.,0.));
#965=DIRECTION('center_axis',(0.,0.,-1.));
#966=DIRECTION('ref_axis',(-1.,0.,0.));
#967=DIRECTION('',(1.,0.,0.));
#968=DIRECTION('',(-1.,0.,0.));
#969=DIRECTION('',(0.,1.,0.));
#970=DIRECTION('center_axis',(1.,0.,0.));
#971=DIRECTION('ref_axis',(0.,0.,-1.));
#972=DIRECTION('',(0.,0.,1.));
#973=DIRECTION('',(0.,0.,-1.));
#974=DIRECTION('',(0.,1.,0.));
#975=DIRECTION('center_axis',(0.,0.,1.));
#976=DIRECTION('ref_axis',(1.,0.,0.));
#977=DIRECTION('',(-1.,0.,0.));
#978=DIRECTION('',(1.,0.,0.));
#979=DIRECTION('center_axis',(1.,3.1720657846433E-16,0.));
#980=DIRECTION('ref_axis',(-3.1720657846433E-16,1.,0.));
#981=DIRECTION('',(3.1720657846433E-16,-1.,0.));
#982=DIRECTION('',(0.,0.,1.));
#983=DIRECTION('',(-3.1720657846433E-16,1.,0.));
#984=DIRECTION('',(0.,0.,1.));
#985=DIRECTION('center_axis',(0.,0.,1.));
#986=DIRECTION('ref_axis',(-1.61486985400023E-15,-1.,0.));
#987=DIRECTION('center_axis',(0.,0.,-1.));
#988=DIRECTION('ref_axis',(-1.61486985400023E-15,-1.,0.));
#989=DIRECTION('center_axis',(0.,0.,1.));
#990=DIRECTION('ref_axis',(-1.61486985400023E-15,-1.,0.));
#991=DIRECTION('',(0.,0.,1.));
#992=DIRECTION('center_axis',(1.13869028166683E-16,-1.,0.));
#993=DIRECTION('ref_axis',(1.,1.13869028166683E-16,0.));
#994=DIRECTION('',(-1.,-1.13869028166683E-16,0.));
#995=DIRECTION('',(1.,1.13869028166683E-16,0.));
#996=DIRECTION('',(0.,0.,1.));
#997=DIRECTION('center_axis',(0.,0.,1.));
#998=DIRECTION('ref_axis',(-1.,1.61486985400023E-15,0.));
#999=DIRECTION('center_axis',(0.,0.,-1.));
#1000=DIRECTION('ref_axis',(-1.,1.61486985400023E-15,0.));
#1001=DIRECTION('center_axis',(0.,0.,1.));
#1002=DIRECTION('ref_axis',(-1.,1.61486985400023E-15,0.));
#1003=DIRECTION('',(0.,0.,1.));
#1004=DIRECTION('center_axis',(-1.,1.58603289232165E-16,0.));
#1005=DIRECTION('ref_axis',(-1.58603289232165E-16,-1.,0.));
#1006=DIRECTION('',(1.58603289232165E-16,1.,0.));
#1007=DIRECTION('',(-1.58603289232165E-16,-1.,0.));
#1008=DIRECTION('',(0.,0.,1.));
#1009=DIRECTION('center_axis',(0.,0.,1.));
#1010=DIRECTION('ref_axis',(0.,1.,0.));
#1011=DIRECTION('center_axis',(0.,0.,-1.));
#1012=DIRECTION('ref_axis',(0.,1.,0.));
#1013=DIRECTION('center_axis',(0.,0.,1.));
#1014=DIRECTION('ref_axis',(0.,1.,0.));
#1015=DIRECTION('',(0.,0.,1.));
#1016=DIRECTION('center_axis',(5.69345140833413E-17,1.,0.));
#1017=DIRECTION('ref_axis',(-1.,5.69345140833413E-17,0.));
#1018=DIRECTION('',(1.,-5.69345140833413E-17,0.));
#1019=DIRECTION('',(-1.,5.69345140833413E-17,0.));
#1020=DIRECTION('',(0.,0.,1.));
#1021=DIRECTION('center_axis',(0.,0.,1.));
#1022=DIRECTION('ref_axis',(1.,-4.03717463500057E-16,0.));
#1023=DIRECTION('center_axis',(0.,0.,-1.));
#1024=DIRECTION('ref_axis',(1.,-4.03717463500057E-16,0.));
#1025=DIRECTION('center_axis',(0.,0.,1.));
#1026=DIRECTION('ref_axis',(1.,-4.03717463500057E-16,0.));
#1027=DIRECTION('center_axis',(0.,0.,1.));
#1028=DIRECTION('ref_axis',(-1.,0.,0.));
#1029=DIRECTION('center_axis',(0.,0.,-1.));
#1030=DIRECTION('ref_axis',(-1.69176841847643E-15,-1.,0.));
#1031=DIRECTION('',(-1.,0.,0.));
#1032=DIRECTION('center_axis',(0.,0.,-1.));
#1033=DIRECTION('ref_axis',(-1.,1.69176841847643E-15,0.));
#1034=DIRECTION('',(3.1720657846433E-16,1.,0.));
#1035=DIRECTION('center_axis',(0.,0.,-1.));
#1036=DIRECTION('ref_axis',(0.,1.,0.));
#1037=DIRECTION('',(1.,0.,0.));
#1038=DIRECTION('center_axis',(0.,0.,-1.));
#1039=DIRECTION('ref_axis',(1.,-4.22942104619108E-16,0.));
#1040=DIRECTION('',(3.1720657846433E-16,-1.,0.));
#1041=DIRECTION('center_axis',(-1.,-3.1720657846433E-16,0.));
#1042=DIRECTION('ref_axis',(3.1720657846433E-16,-1.,0.));
#1043=DIRECTION('',(-3.1720657846433E-16,1.,0.));
#1044=DIRECTION('',(0.,0.,1.));
#1045=DIRECTION('',(0.,0.,1.));
#1046=DIRECTION('center_axis',(0.,0.,1.));
#1047=DIRECTION('ref_axis',(1.,-8.45884209238215E-16,0.));
#1048=DIRECTION('center_axis',(0.,0.,1.));
#1049=DIRECTION('ref_axis',(1.,-8.45884209238215E-16,0.));
#1050=DIRECTION('',(0.,0.,1.));
#1051=DIRECTION('center_axis',(0.,-1.,0.));
#1052=DIRECTION('ref_axis',(1.,0.,0.));
#1053=DIRECTION('',(-1.,0.,0.));
#1054=DIRECTION('',(0.,0.,1.));
#1055=DIRECTION('center_axis',(0.,0.,1.));
#1056=DIRECTION('ref_axis',(-8.45884209238214E-16,1.,0.));
#1057=DIRECTION('center_axis',(0.,0.,1.));
#1058=DIRECTION('ref_axis',(-8.45884209238214E-16,1.,0.));
#1059=DIRECTION('',(0.,0.,1.));
#1060=DIRECTION('center_axis',(1.,0.,0.));
#1061=DIRECTION('ref_axis',(0.,1.,0.));
#1062=DIRECTION('',(0.,-1.,0.));
#1063=DIRECTION('',(0.,0.,1.));
#1064=DIRECTION('center_axis',(0.,0.,1.));
#1065=DIRECTION('ref_axis',(-1.,0.,0.));
#1066=DIRECTION('center_axis',(0.,0.,1.));
#1067=DIRECTION('ref_axis',(-1.,0.,0.));
#1068=DIRECTION('',(0.,0.,1.));
#1069=DIRECTION('center_axis',(0.,1.,0.));
#1070=DIRECTION('ref_axis',(-1.,0.,0.));
#1071=DIRECTION('',(1.,0.,0.));
#1072=DIRECTION('',(0.,0.,1.));
#1073=DIRECTION('center_axis',(0.,0.,1.));
#1074=DIRECTION('ref_axis',(0.,-1.,0.));
#1075=DIRECTION('center_axis',(0.,0.,1.));
#1076=DIRECTION('ref_axis',(0.,-1.,0.));
#1077=DIRECTION('center_axis',(0.,0.,1.));
#1078=DIRECTION('ref_axis',(-1.,0.,0.));
#1079=DIRECTION('center_axis',(0.,0.,1.));
#1080=DIRECTION('ref_axis',(-1.,0.,0.));
#1081=DIRECTION('',(1.,0.,0.));
#1082=DIRECTION('center_axis',(0.,0.,1.));
#1083=DIRECTION('ref_axis',(0.,-1.,0.));
#1084=DIRECTION('',(0.,1.,0.));
#1085=DIRECTION('center_axis',(0.,0.,1.));
#1086=DIRECTION('ref_axis',(1.,-7.40148683083438E-16,0.));
#1087=DIRECTION('',(-1.,0.,0.));
#1088=DIRECTION('center_axis',(0.,0.,1.));
#1089=DIRECTION('ref_axis',(-7.40148683083438E-16,1.,0.));
#1090=DIRECTION('',(0.,-1.,0.));
#1091=DIRECTION('center_axis',(0.,1.,0.));
#1092=DIRECTION('ref_axis',(-1.,0.,0.));
#1093=DIRECTION('',(1.,0.,0.));
#1094=DIRECTION('',(0.,0.,1.));
#1095=DIRECTION('',(1.,0.,0.));
#1096=DIRECTION('',(0.,0.,1.));
#1097=DIRECTION('center_axis',(0.,0.,1.));
#1098=DIRECTION('ref_axis',(1.,-1.11022302462516E-15,0.));
#1099=DIRECTION('center_axis',(0.,0.,-1.));
#1100=DIRECTION('ref_axis',(1.,-1.11022302462516E-15,0.));
#1101=DIRECTION('',(0.,0.,1.));
#1102=DIRECTION('center_axis',(0.,0.,-1.));
#1103=DIRECTION('ref_axis',(1.,-1.11022302462516E-15,0.));
#1104=DIRECTION('center_axis',(1.,3.1720657846433E-16,0.));
#1105=DIRECTION('ref_axis',(-3.1720657846433E-16,1.,0.));
#1106=DIRECTION('',(3.1720657846433E-16,-1.,0.));
#1107=DIRECTION('',(0.,0.,1.));
#1108=DIRECTION('',(3.1720657846433E-16,-1.,0.));
#1109=DIRECTION('center_axis',(0.,0.,1.));
#1110=DIRECTION('ref_axis',(0.,-1.,0.));
#1111=DIRECTION('center_axis',(0.,0.,-1.));
#1112=DIRECTION('ref_axis',(0.,-1.,0.));
#1113=DIRECTION('',(0.,0.,1.));
#1114=DIRECTION('center_axis',(0.,0.,-1.));
#1115=DIRECTION('ref_axis',(0.,-1.,0.));
#1116=DIRECTION('center_axis',(0.,-1.,0.));
#1117=DIRECTION('ref_axis',(1.,0.,0.));
#1118=DIRECTION('',(-1.,0.,0.));
#1119=DIRECTION('',(0.,0.,1.));
#1120=DIRECTION('',(-1.,0.,0.));
#1121=DIRECTION('center_axis',(0.,0.,1.));
#1122=DIRECTION('ref_axis',(-1.,0.,0.));
#1123=DIRECTION('center_axis',(0.,0.,-1.));
#1124=DIRECTION('ref_axis',(-1.,0.,0.));
#1125=DIRECTION('',(0.,0.,1.));
#1126=DIRECTION('center_axis',(0.,0.,-1.));
#1127=DIRECTION('ref_axis',(-1.,0.,0.));
#1128=DIRECTION('center_axis',(-1.,0.,0.));
#1129=DIRECTION('ref_axis',(0.,-1.,0.));
#1130=DIRECTION('',(0.,1.,0.));
#1131=DIRECTION('',(0.,0.,1.));
#1132=DIRECTION('',(0.,1.,0.));
#1133=DIRECTION('center_axis',(0.,0.,1.));
#1134=DIRECTION('ref_axis',(0.,1.,0.));
#1135=DIRECTION('center_axis',(0.,0.,-1.));
#1136=DIRECTION('ref_axis',(0.,1.,0.));
#1137=DIRECTION('center_axis',(0.,0.,-1.));
#1138=DIRECTION('ref_axis',(0.,1.,0.));
#1139=DIRECTION('center_axis',(0.,0.,1.));
#1140=DIRECTION('ref_axis',(1.,0.,0.));
#1141=DIRECTION('center_axis',(0.,1.,0.));
#1142=DIRECTION('ref_axis',(-1.,0.,0.));
#1143=DIRECTION('',(1.,0.,0.));
#1144=DIRECTION('',(0.,0.,1.));
#1145=DIRECTION('',(0.,0.,1.));
#1146=DIRECTION('center_axis',(0.,0.,1.));
#1147=DIRECTION('ref_axis',(1.,-1.11022302462516E-15,0.));
#1148=DIRECTION('center_axis',(0.,0.,1.));
#1149=DIRECTION('ref_axis',(1.,-1.11022302462516E-15,0.));
#1150=DIRECTION('',(0.,0.,1.));
#1151=DIRECTION('center_axis',(1.,3.1720657846433E-16,0.));
#1152=DIRECTION('ref_axis',(-3.1720657846433E-16,1.,0.));
#1153=DIRECTION('',(-3.1720657846433E-16,1.,0.));
#1154=DIRECTION('',(0.,0.,1.));
#1155=DIRECTION('center_axis',(0.,0.,1.));
#1156=DIRECTION('ref_axis',(0.,-1.,0.));
#1157=DIRECTION('center_axis',(0.,0.,1.));
#1158=DIRECTION('ref_axis',(0.,-1.,0.));
#1159=DIRECTION('',(0.,0.,1.));
#1160=DIRECTION('center_axis',(0.,-1.,0.));
#1161=DIRECTION('ref_axis',(1.,0.,0.));
#1162=DIRECTION('',(1.,0.,0.));
#1163=DIRECTION('',(0.,0.,1.));
#1164=DIRECTION('center_axis',(0.,0.,1.));
#1165=DIRECTION('ref_axis',(-1.,0.,0.));
#1166=DIRECTION('center_axis',(0.,0.,1.));
#1167=DIRECTION('ref_axis',(-1.,0.,0.));
#1168=DIRECTION('',(0.,0.,1.));
#1169=DIRECTION('center_axis',(-1.,0.,0.));
#1170=DIRECTION('ref_axis',(0.,-1.,0.));
#1171=DIRECTION('',(0.,-1.,0.));
#1172=DIRECTION('',(0.,0.,1.));
#1173=DIRECTION('center_axis',(0.,0.,1.));
#1174=DIRECTION('ref_axis',(0.,1.,0.));
#1175=DIRECTION('center_axis',(0.,0.,1.));
#1176=DIRECTION('ref_axis',(0.,1.,0.));
#1177=DIRECTION('center_axis',(0.,0.,1.));
#1178=DIRECTION('ref_axis',(1.,0.,0.));
#1179=DIRECTION('center_axis',(0.,0.,1.));
#1180=DIRECTION('ref_axis',(1.,0.,0.));
#1181=DIRECTION('center_axis',(1.,0.,0.));
#1182=DIRECTION('ref_axis',(0.,0.,-1.));
#1183=DIRECTION('center_axis',(-0.707106781186548,0.,0.707106781186548));
#1184=DIRECTION('ref_axis',(-0.707106781186547,0.,-0.707106781186547));
#1185=DIRECTION('',(-1.,0.,0.));
#1186=DIRECTION('center_axis',(0.707106781186548,0.,0.707106781186548));
#1187=DIRECTION('ref_axis',(0.707106781186547,0.,-0.707106781186547));
#1188=DIRECTION('',(1.,0.,0.));
#1189=DIRECTION('center_axis',(0.,0.707106781186548,-0.707106781186547));
#1190=DIRECTION('ref_axis',(1.,0.,0.));
#1191=DIRECTION('',(0.577350269189626,-0.577350269189626,-0.577350269189626));
#1192=DIRECTION('',(-1.,0.,0.));
#1193=DIRECTION('',(-0.577350269189626,-0.577350269189626,-0.577350269189626));
#1194=DIRECTION('center_axis',(-0.707106781186548,0.,-0.707106781186548));
#1195=DIRECTION('ref_axis',(0.,1.,0.));
#1196=DIRECTION('',(0.577350269189625,0.577350269189627,-0.577350269189625));
#1197=DIRECTION('',(0.,-1.,0.));
#1198=DIRECTION('center_axis',(0.,-0.707106781186546,-0.707106781186549));
#1199=DIRECTION('ref_axis',(-1.,0.,0.));
#1200=DIRECTION('',(-0.577350269189625,0.577350269189627,-0.577350269189625));
#1201=DIRECTION('',(1.,0.,0.));
#1202=DIRECTION('center_axis',(0.707106781186548,0.,-0.707106781186548));
#1203=DIRECTION('ref_axis',(0.,-1.,0.));
#1204=DIRECTION('',(0.,1.,0.));
#1205=DIRECTION('center_axis',(0.,0.,-1.));
#1206=DIRECTION('ref_axis',(1.,0.,0.));
#1207=CARTESIAN_POINT('',(0.,0.,0.));
#1208=CARTESIAN_POINT('Origin',(4.99398439852875,-50.,4.45678773780121));
#1209=CARTESIAN_POINT('',(4.99398439852875,-47.5,14.4567877378012));
#1210=CARTESIAN_POINT('',(4.99398439852875,-47.5,4.45678773780121));
#1211=CARTESIAN_POINT('',(4.99398439852875,-47.5,2.22839386890061));
#1212=CARTESIAN_POINT('',(4.99398439852875,-50.,14.4567877378012));
#1213=CARTESIAN_POINT('',(4.99398439852875,-50.,14.4567877378012));
#1214=CARTESIAN_POINT('',(4.99398439852875,-50.,4.45678773780121));
#1215=CARTESIAN_POINT('',(4.99398439852875,-50.,2.22839386890061));
#1216=CARTESIAN_POINT('',(4.99398439852875,-50.,4.45678773780121));
#1217=CARTESIAN_POINT('Origin',(24.9939843985288,-50.,4.45678773780121));
#1218=CARTESIAN_POINT('',(24.9939843985288,-47.5,4.45678773780121));
#1219=CARTESIAN_POINT('',(-6.50300780073562,-47.5,4.45678773780121));
#1220=CARTESIAN_POINT('',(24.9939843985288,-50.,4.45678773780121));
#1221=CARTESIAN_POINT('',(-6.50300780073562,-50.,4.45678773780121));
#1222=CARTESIAN_POINT('',(24.9939843985288,-50.,4.45678773780121));
#1223=CARTESIAN_POINT('Origin',(24.9939843985288,-50.,14.4567877378012));
#1224=CARTESIAN_POINT('',(24.9939843985288,-47.5,14.4567877378012));
#1225=CARTESIAN_POINT('',(24.9939843985288,-47.5,7.22839386890061));
#1226=CARTESIAN_POINT('',(24.9939843985288,-50.,14.4567877378012));
#1227=CARTESIAN_POINT('',(24.9939843985288,-50.,7.22839386890061));
#1228=CARTESIAN_POINT('',(24.9939843985288,-50.,14.4567877378012));
#1229=CARTESIAN_POINT('Origin',(4.99398439852875,-50.,14.4567877378012));
#1230=CARTESIAN_POINT('',(-16.5030078007356,-47.5,14.4567877378012));
#1231=CARTESIAN_POINT('',(-16.5030078007356,-50.,14.4567877378012));
#1232=CARTESIAN_POINT('Origin',(129.,-38.,24.));
#1233=CARTESIAN_POINT('',(129.,18.,24.));
#1234=CARTESIAN_POINT('',(129.,-38.,24.));
#1235=CARTESIAN_POINT('',(129.,-24.,24.));
#1236=CARTESIAN_POINT('',(129.,18.,24.5));
#1237=CARTESIAN_POINT('',(129.,18.,24.));
#1238=CARTESIAN_POINT('',(129.,-38.,24.5));
#1239=CARTESIAN_POINT('',(129.,18.,24.5));
#1240=CARTESIAN_POINT('',(129.,-38.,24.));
#1241=CARTESIAN_POINT('Origin',(118.,-38.,24.));
#1242=CARTESIAN_POINT('',(118.,-49.,24.));
#1243=CARTESIAN_POINT('Origin',(118.,-38.,24.));
#1244=CARTESIAN_POINT('',(118.,-49.,24.5));
#1245=CARTESIAN_POINT('Origin',(118.,-38.,24.5));
#1246=CARTESIAN_POINT('',(118.,-49.,24.));
#1247=CARTESIAN_POINT('Origin',(-38.,-49.,24.));
#1248=CARTESIAN_POINT('',(-38.,-49.,24.));
#1249=CARTESIAN_POINT('',(1.00000000000001,-49.,24.));
#1250=CARTESIAN_POINT('',(-38.,-49.,24.5));
#1251=CARTESIAN_POINT('',(118.,-49.,24.5));
#1252=CARTESIAN_POINT('',(-38.,-49.,24.));
#1253=CARTESIAN_POINT('Origin',(-38.,-38.,24.));
#1254=CARTESIAN_POINT('',(-49.,-38.,24.));
#1255=CARTESIAN_POINT('Origin',(-38.,-38.,24.));
#1256=CARTESIAN_POINT('',(-49.,-38.,24.5));
#1257=CARTESIAN_POINT('Origin',(-38.,-38.,24.5));
#1258=CARTESIAN_POINT('',(-49.,-38.,24.));
#1259=CARTESIAN_POINT('Origin',(-49.,18.,24.));
#1260=CARTESIAN_POINT('',(-49.,18.,24.));
#1261=CARTESIAN_POINT('',(-49.,4.,24.));
#1262=CARTESIAN_POINT('',(-49.,18.,24.5));
#1263=CARTESIAN_POINT('',(-49.,-38.,24.5));
#1264=CARTESIAN_POINT('',(-49.,18.,24.));
#1265=CARTESIAN_POINT('Origin',(-38.,18.,24.));
#1266=CARTESIAN_POINT('',(-38.,29.,24.));
#1267=CARTESIAN_POINT('Origin',(-38.,18.,24.));
#1268=CARTESIAN_POINT('',(-38.,29.,24.5));
#1269=CARTESIAN_POINT('Origin',(-38.,18.,24.5));
#1270=CARTESIAN_POINT('',(-38.,29.,24.));
#1271=CARTESIAN_POINT('Origin',(118.,29.,24.));
#1272=CARTESIAN_POINT('',(118.,29.,24.));
#1273=CARTESIAN_POINT('',(79.,29.,24.));
#1274=CARTESIAN_POINT('',(118.,29.,24.5));
#1275=CARTESIAN_POINT('',(-38.,29.,24.5));
#1276=CARTESIAN_POINT('',(118.,29.,24.));
#1277=CARTESIAN_POINT('Origin',(118.,18.,24.));
#1278=CARTESIAN_POINT('Origin',(118.,18.,24.));
#1279=CARTESIAN_POINT('Origin',(118.,18.,24.5));
#1280=CARTESIAN_POINT('Origin',(40.,-10.,24.5));
#1281=CARTESIAN_POINT('',(128.5,-38.,24.5));
#1282=CARTESIAN_POINT('',(118.,-48.5,24.5));
#1283=CARTESIAN_POINT('Origin',(118.,-38.,24.5));
#1284=CARTESIAN_POINT('',(-38.,-48.5,24.5));
#1285=CARTESIAN_POINT('',(118.,-48.5,24.5));
#1286=CARTESIAN_POINT('',(-48.5,-38.,24.5));
#1287=CARTESIAN_POINT('Origin',(-38.,-38.,24.5));
#1288=CARTESIAN_POINT('',(-48.5,18.,24.5));
#1289=CARTESIAN_POINT('',(-48.5,-38.,24.5));
#1290=CARTESIAN_POINT('',(-38.,28.5,24.5));
#1291=CARTESIAN_POINT('Origin',(-38.,18.,24.5));
#1292=CARTESIAN_POINT('',(118.,28.5,24.5));
#1293=CARTESIAN_POINT('',(-38.,28.5,24.5));
#1294=CARTESIAN_POINT('',(128.5,18.,24.5));
#1295=CARTESIAN_POINT('Origin',(118.,18.,24.5));
#1296=CARTESIAN_POINT('',(128.5,18.,24.5));
#1297=CARTESIAN_POINT('Origin',(128.5,18.,20.));
#1298=CARTESIAN_POINT('',(128.5,-38.,20.));
#1299=CARTESIAN_POINT('',(128.5,18.,20.));
#1300=CARTESIAN_POINT('',(128.5,4.00000000000001,20.));
#1301=CARTESIAN_POINT('',(128.5,-38.,20.));
#1302=CARTESIAN_POINT('',(128.5,18.,20.));
#1303=CARTESIAN_POINT('Origin',(118.,18.,20.));
#1304=CARTESIAN_POINT('',(118.,28.5,20.));
#1305=CARTESIAN_POINT('Origin',(118.,18.,20.));
#1306=CARTESIAN_POINT('',(118.,28.5,20.));
#1307=CARTESIAN_POINT('Origin',(-38.,28.5,20.));
#1308=CARTESIAN_POINT('',(-38.,28.5,20.));
#1309=CARTESIAN_POINT('',(0.999999999999996,28.5,20.));
#1310=CARTESIAN_POINT('',(-38.,28.5,20.));
#1311=CARTESIAN_POINT('Origin',(-38.,18.,20.));
#1312=CARTESIAN_POINT('',(-48.5,18.,20.));
#1313=CARTESIAN_POINT('Origin',(-38.,18.,20.));
#1314=CARTESIAN_POINT('',(-48.5,18.,20.));
#1315=CARTESIAN_POINT('Origin',(-48.5,-38.,20.));
#1316=CARTESIAN_POINT('',(-48.5,-38.,20.));
#1317=CARTESIAN_POINT('',(-48.5,-24.,20.));
#1318=CARTESIAN_POINT('',(-48.5,-38.,20.));
#1319=CARTESIAN_POINT('Origin',(-38.,-38.,20.));
#1320=CARTESIAN_POINT('',(-38.,-48.5,20.));
#1321=CARTESIAN_POINT('Origin',(-38.,-38.,20.));
#1322=CARTESIAN_POINT('',(-38.,-48.5,20.));
#1323=CARTESIAN_POINT('Origin',(118.,-48.5,20.));
#1324=CARTESIAN_POINT('',(118.,-48.5,20.));
#1325=CARTESIAN_POINT('',(79.,-48.5,20.));
#1326=CARTESIAN_POINT('',(118.,-48.5,20.));
#1327=CARTESIAN_POINT('Origin',(118.,-38.,20.));
#1328=CARTESIAN_POINT('Origin',(118.,-38.,20.));
#1329=CARTESIAN_POINT('Origin',(40.,-10.,24.));
#1330=CARTESIAN_POINT('',(-50.,-38.,24.));
#1331=CARTESIAN_POINT('',(-38.,-50.,24.));
#1332=CARTESIAN_POINT('Origin',(-38.,-38.,24.));
#1333=CARTESIAN_POINT('',(118.,-50.,24.));
#1334=CARTESIAN_POINT('',(-38.,-50.,24.));
#1335=CARTESIAN_POINT('',(130.,-38.,24.));
#1336=CARTESIAN_POINT('Origin',(118.,-38.,24.));
#1337=CARTESIAN_POINT('',(130.,18.,24.));
#1338=CARTESIAN_POINT('',(130.,-38.,24.));
#1339=CARTESIAN_POINT('',(118.,30.,24.));
#1340=CARTESIAN_POINT('Origin',(118.,18.,24.));
#1341=CARTESIAN_POINT('',(-38.,30.,24.));
#1342=CARTESIAN_POINT('',(118.,30.,24.));
#1343=CARTESIAN_POINT('',(-50.,18.,24.));
#1344=CARTESIAN_POINT('Origin',(-38.,18.,24.));
#1345=CARTESIAN_POINT('',(-50.,18.,24.));
#1346=CARTESIAN_POINT('Origin',(118.,27.5,0.));
#1347=CARTESIAN_POINT('',(-38.,27.5,2.5));
#1348=CARTESIAN_POINT('',(118.,27.5,2.5));
#1349=CARTESIAN_POINT('',(79.,27.5,2.5));
#1350=CARTESIAN_POINT('',(118.,27.5,20.));
#1351=CARTESIAN_POINT('',(118.,27.5,0.));
#1352=CARTESIAN_POINT('',(-38.,27.5,20.));
#1353=CARTESIAN_POINT('',(79.,27.5,20.));
#1354=CARTESIAN_POINT('',(-38.,27.5,0.));
#1355=CARTESIAN_POINT('Origin',(118.,18.,0.));
#1356=CARTESIAN_POINT('',(127.5,18.,2.5));
#1357=CARTESIAN_POINT('Origin',(118.,18.,2.5));
#1358=CARTESIAN_POINT('',(127.5,18.,20.));
#1359=CARTESIAN_POINT('',(127.5,18.,0.));
#1360=CARTESIAN_POINT('Origin',(118.,18.,20.));
#1361=CARTESIAN_POINT('Origin',(127.5,-38.,0.));
#1362=CARTESIAN_POINT('',(127.5,-38.,2.5));
#1363=CARTESIAN_POINT('',(127.5,-24.,2.5));
#1364=CARTESIAN_POINT('',(127.5,-38.,20.));
#1365=CARTESIAN_POINT('',(127.5,-38.,0.));
#1366=CARTESIAN_POINT('',(127.5,-24.,20.));
#1367=CARTESIAN_POINT('Origin',(118.,-38.,0.));
#1368=CARTESIAN_POINT('',(118.,-47.5,2.5));
#1369=CARTESIAN_POINT('Origin',(118.,-38.,2.5));
#1370=CARTESIAN_POINT('',(118.,-47.5,20.));
#1371=CARTESIAN_POINT('',(118.,-47.5,0.));
#1372=CARTESIAN_POINT('Origin',(118.,-38.,20.));
#1373=CARTESIAN_POINT('Origin',(-38.,-47.5,0.));
#1374=CARTESIAN_POINT('',(-38.,-47.5,2.5));
#1375=CARTESIAN_POINT('',(1.,-47.5,2.5));
#1376=CARTESIAN_POINT('',(-38.,-47.5,20.));
#1377=CARTESIAN_POINT('',(-38.,-47.5,0.));
#1378=CARTESIAN_POINT('',(1.,-47.5,20.));
#1379=CARTESIAN_POINT('Origin',(-38.,-38.,0.));
#1380=CARTESIAN_POINT('',(-47.5,-38.,2.5));
#1381=CARTESIAN_POINT('Origin',(-38.,-38.,2.5));
#1382=CARTESIAN_POINT('',(-47.5,-38.,20.));
#1383=CARTESIAN_POINT('',(-47.5,-38.,0.));
#1384=CARTESIAN_POINT('Origin',(-38.,-38.,20.));
#1385=CARTESIAN_POINT('Origin',(-47.5,18.,0.));
#1386=CARTESIAN_POINT('',(-47.5,18.,2.5));
#1387=CARTESIAN_POINT('',(-47.5,4.,2.5));
#1388=CARTESIAN_POINT('',(-47.5,18.,20.));
#1389=CARTESIAN_POINT('',(-47.5,18.,0.));
#1390=CARTESIAN_POINT('',(-47.5,4.,20.));
#1391=CARTESIAN_POINT('Origin',(-38.,18.,0.));
#1392=CARTESIAN_POINT('Origin',(-38.,18.,2.5));
#1393=CARTESIAN_POINT('Origin',(-38.,18.,20.));
#1394=CARTESIAN_POINT('Origin',(40.,-10.,2.5));
#1395=CARTESIAN_POINT('Origin',(118.,30.,0.));
#1396=CARTESIAN_POINT('',(-38.,30.,0.));
#1397=CARTESIAN_POINT('',(118.,30.,0.));
#1398=CARTESIAN_POINT('',(-38.,30.,0.));
#1399=CARTESIAN_POINT('',(-38.,30.,0.));
#1400=CARTESIAN_POINT('',(118.,30.,0.));
#1401=CARTESIAN_POINT('Origin',(118.,18.,0.));
#1402=CARTESIAN_POINT('',(130.,18.,0.));
#1403=CARTESIAN_POINT('Origin',(118.,18.,0.));
#1404=CARTESIAN_POINT('',(130.,18.,0.));
#1405=CARTESIAN_POINT('Origin',(130.,-38.,0.));
#1406=CARTESIAN_POINT('',(130.,-38.,0.));
#1407=CARTESIAN_POINT('',(130.,-38.,0.));
#1408=CARTESIAN_POINT('',(130.,-38.,0.));
#1409=CARTESIAN_POINT('Origin',(118.,-38.,0.));
#1410=CARTESIAN_POINT('',(118.,-50.,0.));
#1411=CARTESIAN_POINT('Origin',(118.,-38.,0.));
#1412=CARTESIAN_POINT('',(118.,-50.,0.));
#1413=CARTESIAN_POINT('Origin',(-38.,-50.,0.));
#1414=CARTESIAN_POINT('',(-38.,-50.,0.));
#1415=CARTESIAN_POINT('',(-38.,-50.,0.));
#1416=CARTESIAN_POINT('',(-38.,-50.,0.));
#1417=CARTESIAN_POINT('Origin',(-38.,-38.,0.));
#1418=CARTESIAN_POINT('',(-50.,-38.,0.));
#1419=CARTESIAN_POINT('Origin',(-38.,-38.,0.));
#1420=CARTESIAN_POINT('',(-50.,-38.,0.));
#1421=CARTESIAN_POINT('Origin',(-50.,18.,0.));
#1422=CARTESIAN_POINT('',(-50.,18.,0.));
#1423=CARTESIAN_POINT('',(-50.,18.,0.));
#1424=CARTESIAN_POINT('',(-50.,18.,0.));
#1425=CARTESIAN_POINT('Origin',(-38.,18.,0.));
#1426=CARTESIAN_POINT('Origin',(-38.,18.,0.));
#1427=CARTESIAN_POINT('Origin',(40.,-10.,20.));
#1428=CARTESIAN_POINT('Origin',(40.,-10.,0.));
#1429=CARTESIAN_POINT('Origin',(25.,67.5,0.328427124746194));
#1430=CARTESIAN_POINT('',(113.914213562373,68.9142135623731,-1.0857864376269));
#1431=CARTESIAN_POINT('',(113.914213562373,66.0857864376269,-1.0857864376269));
#1432=CARTESIAN_POINT('Origin',(115.328427124746,67.5,0.328427124746194));
#1433=CARTESIAN_POINT('',(-63.9142135623731,66.0857864376269,-1.0857864376269));
#1434=CARTESIAN_POINT('',(25.,66.0857864376269,-1.08578643762691));
#1435=CARTESIAN_POINT('',(-63.9142135623731,68.9142135623731,-1.0857864376269));
#1436=CARTESIAN_POINT('Origin',(-65.3284271247462,67.5,0.328427124746194));
#1437=CARTESIAN_POINT('',(25.,68.9142135623731,-1.0857864376269));
#1438=CARTESIAN_POINT('Origin',(115.,70.,0.));
#1439=CARTESIAN_POINT('',(-65.,70.,0.));
#1440=CARTESIAN_POINT('',(-35.,40.,-30.));
#1441=CARTESIAN_POINT('',(115.,70.,0.));
#1442=CARTESIAN_POINT('',(115.,70.,0.));
#1443=CARTESIAN_POINT('',(114.166666666667,69.1666666666667,-0.833333333333333));
#1444=CARTESIAN_POINT('Origin',(-65.,70.,0.));
#1445=CARTESIAN_POINT('',(-65.,65.,0.));
#1446=CARTESIAN_POINT('',(-64.1666666666667,65.8333333333333,-0.833333333333334));
#1447=CARTESIAN_POINT('',(-65.,70.,0.));
#1448=CARTESIAN_POINT('Origin',(-65.,65.,0.));
#1449=CARTESIAN_POINT('',(115.,65.,0.));
#1450=CARTESIAN_POINT('',(85.0000000000001,95.,-29.9999999999999));
#1451=CARTESIAN_POINT('',(-65.,65.,0.));
#1452=CARTESIAN_POINT('Origin',(115.,65.,0.));
#1453=CARTESIAN_POINT('',(115.,65.,0.));
#1454=CARTESIAN_POINT('Origin',(25.,67.5,0.));
#1455=UNCERTAINTY_MEASURE_WITH_UNIT(LENGTH_MEASURE(0.01),#1459,
'DISTANCE_ACCURACY_VALUE',
'Maximum model space distance between geometric entities at asserted c
onnectivities');
#1456=UNCERTAINTY_MEASURE_WITH_UNIT(LENGTH_MEASURE(0.01),#1459,
'DISTANCE_ACCURACY_VALUE',
'Maximum model space distance between geometric entities at asserted c
onnectivities');
#1457=(
GEOMETRIC_REPRESENTATION_CONTEXT(3)
GLOBAL_UNCERTAINTY_ASSIGNED_CONTEXT((#1455))
GLOBAL_UNIT_ASSIGNED_CONTEXT((#1459,#1461,#1462))
REPRESENTATION_CONTEXT('','3D')
);
#1458=(
GEOMETRIC_REPRESENTATION_CONTEXT(3)
GLOBAL_UNCERTAINTY_ASSIGNED_CONTEXT((#1456))
GLOBAL_UNIT_ASSIGNED_CONTEXT((#1459,#1461,#1462))
REPRESENTATION_CONTEXT('','3D')
);
#1459=(
LENGTH_UNIT()
NAMED_UNIT(*)
SI_UNIT(.MILLI.,.METRE.)
);
#1460=(
LENGTH_UNIT()
NAMED_UNIT(*)
SI_UNIT($,.METRE.)
);
#1461=(
NAMED_UNIT(*)
PLANE_ANGLE_UNIT()
SI_UNIT($,.RADIAN.)
);
#1462=(
NAMED_UNIT(*)
SI_UNIT($,.STERADIAN.)
SOLID_ANGLE_UNIT()
);
#1463=SHAPE_DEFINITION_REPRESENTATION(#1464,#1465);
#1464=PRODUCT_DEFINITION_SHAPE('',$,#1467);
#1465=SHAPE_REPRESENTATION('',(#875),#1457);
#1466=PRODUCT_DEFINITION_CONTEXT('part definition',#1471,'design');
#1467=PRODUCT_DEFINITION('2026-09-09-22-05-19-498',
'FINAL BRAILLE BOTTOM',#1468,#1466);
#1468=PRODUCT_DEFINITION_FORMATION('',$,#1473);
#1469=PRODUCT_RELATED_PRODUCT_CATEGORY('FINAL BRAILLE BOTTOM',
'FINAL BRAILLE BOTTOM',(#1473));
#1470=APPLICATION_PROTOCOL_DEFINITION('international standard',
'automotive_design',2009,#1471);
#1471=APPLICATION_CONTEXT(
'Core Data for Automotive Mechanical Design Process');
#1472=PRODUCT_CONTEXT('part definition',#1471,'mechanical');
#1473=PRODUCT('2026-09-09-22-05-19-498','FINAL BRAILLE BOTTOM',$,(#1472));
#1474=PRESENTATION_STYLE_ASSIGNMENT((#1475));
#1475=SURFACE_STYLE_USAGE(.BOTH.,#1476);
#1476=SURFACE_SIDE_STYLE('',(#1477));
#1477=SURFACE_STYLE_FILL_AREA(#1478);
#1478=FILL_AREA_STYLE('Steel - Satin',(#1479));
#1479=FILL_AREA_STYLE_COLOUR('Steel - Satin',#1480);
#1480=COLOUR_RGB('Steel - Satin',0.627450980392157,0.627450980392157,0.627450980392157);
ENDSEC;
END-ISO-10303-21;
